# xmcd
#
# Track frame offsets:
#   150
#   14597
#   29044
#   44497
#   61559
#   81882
#   101567
#   121492
#   137687
#   150880
#   172812
#   188687
#   200201
#   217281
#   235507
#
# Disc length: 3307 seconds
#
# Revision: 0
# Processed by: cddbd v1.5.2PL0 Copyright (c) Steve Scherf et al.
# Submitted via: GXTranscoder 2.0.1939
#
DISCID=ca0ce90f
DTITLE=steffan gwildis - nur wegen dir
DYEAR=2002
DGENRE=Blues
TTITLE0=das kann doch nicht dein ernst sein
TTITLE1=nur wegen dir
TTITLE2=bleib so wie du bis 
TTITLE3=wunderschönes grau
TTITLE4=neues spiel 
TTITLE5=große freiheit
TTITLE6=wir haben doch jeden berg geschafft
TTITLE7=es kommt eine zeit
TTITLE8=dein herz ein ainsamer jäger
TTITLE9=tu doch was
TTITLE10=das war so doch nicht geplant
TTITLE11=mama mag ihn
TTITLE12=nur in meinen gedanken
TTITLE13=du bist so wundervoll
TTITLE14=keine ahnung
EXTD=
EXTT0=
EXTT1=
EXTT2=
EXTT3=
EXTT4=
EXTT5=
EXTT6=
EXTT7=
EXTT8=
EXTT9=
EXTT10=
EXTT11=
EXTT12=
EXTT13=
EXTT14=
PLAYORDER=
